<svg width="110" height="42" viewBox="0 0 110 42" fill="none" xmlns="http://www.w3.org/2000/svg">
<g clip-path="url(#clip0_10670_83462)">
<path d="M109.614 20.3565C109.09 19.0325 108.062 18.1155 106.763 17.7673C106.494 17.2454 106.127 16.8144 105.67 16.4816C105.668 16.2227 105.641 15.9648 105.587 15.7093C106.316 14.8512 106.672 13.737 106.597 12.5262C106.542 11.6349 106.195 10.3235 104.861 9.12978C104.112 8.45976 103.317 7.86464 102.499 7.36099C101.662 6.84533 100.774 6.40799 99.8591 6.06327C98.9456 5.71854 97.9772 5.45385 96.9818 5.27777C96.0053 5.10455 94.9709 5.01251 93.9062 5.00051H93.8593C93.7665 4.99822 93.6846 5.00394 93.5975 5.01251L93.5746 5.0148C93.4927 5.02337 93.3948 5.03138 93.2814 5.03995L93.2648 5.0411C92.8747 5.07139 92.2848 5.11827 91.6846 5.21089C90.0747 5.46128 88.5392 5.94436 87.1194 6.6481C85.7225 7.34098 84.4121 8.26025 83.2266 9.3796C82.8944 9.69403 82.6172 10.0422 82.4036 10.4132C81.6768 11.6829 81.7192 13.2036 82.5135 14.3841C83.1326 15.3034 84.1103 15.8688 85.1727 15.9831V16.2364C83.3812 16.1798 81.8326 16.6451 80.3555 17.6702C80.3206 17.6942 80.2856 17.7182 80.2518 17.7433C79.2077 16.4599 77.2628 15.9025 75.3859 16.4651C75.1563 16.5337 74.9403 16.6206 74.7376 16.7229C73.5921 15.9986 72.1191 15.9625 70.7394 16.64C70.4788 16.7675 70.2417 16.9001 70.0309 17.0173C69.8958 17.0922 69.7692 17.1642 69.6541 17.2231C69.5453 17.2797 69.4679 17.31 69.4198 17.3254C68.9554 17.1556 68.5166 16.971 68.1129 16.7749C66.4835 15.982 64.6834 15.982 62.9331 16.7532C62.9222 16.6903 62.9091 16.628 62.8948 16.5651C62.3312 13.9868 60.6989 12.1483 58.2958 11.3868C55.4871 10.4967 52.5295 10.6985 49.5055 11.9853C47.4122 12.8754 45.8395 14.2555 44.8292 16.0895C44.6442 16.4245 44.5022 16.7738 44.4065 17.1293C43.804 16.6954 43.0423 16.4319 42.1322 16.3427C41.2537 16.257 40.4112 16.4582 39.6976 16.8692C39.7073 16.5451 39.6919 16.1581 39.5361 15.6595C39.3053 14.9198 38.7709 14.3018 38.0705 13.9645C37.9994 13.9308 37.929 13.9005 37.8557 13.8719C37.6312 12.7926 36.9296 11.879 35.9004 11.3393C34.6175 10.667 32.9503 10.6516 31.6502 11.2999C30.9549 11.648 30.4165 12.2277 30.0494 13.0252C29.9251 13.2974 29.849 13.5638 29.7997 13.7964C29.1668 13.7347 28.5277 13.8467 27.9658 14.1269C27.3851 14.4161 26.9183 14.8609 26.6125 15.4092C26.5088 15.332 26.4011 15.2559 26.29 15.1828C25.6589 14.7706 24.9407 14.5716 24.2225 14.5814C24.0787 14.2475 23.8869 13.9319 23.6503 13.6449C22.8668 12.6954 21.6721 12.1403 20.3743 12.1243H20.3239C19.281 12.1243 18.2804 12.5353 17.4924 13.211C17.4019 13.2882 17.3148 13.37 17.2301 13.4546C16.2272 12.2763 14.8137 11.4794 13.0612 11.1301C11.6586 10.8505 10.1712 10.8408 8.51373 11.0998C6.32075 11.4422 4.49433 12.2214 2.9325 13.4831C2.21373 14.0646 0.0241896 15.8316 0.000135077 18.8067C-0.0107467 20.1913 0.636435 21.4198 1.73092 22.0921C2.15244 22.3511 2.6112 22.5163 3.09114 22.5884C3.06938 22.6501 3.04647 22.7124 3.02356 22.7742C1.92736 25.7332 2.84258 28.6614 5.30244 30.0591C6.24286 30.5942 7.43299 30.8761 8.68955 30.8761C8.82815 30.8761 8.96733 30.8726 9.10707 30.8652C8.52862 31.8302 8.37685 32.9713 8.70845 34.0255C9.08359 35.2146 10.0315 36.1195 11.2456 36.4483C11.6523 36.558 12.1969 36.6615 12.8149 36.6615C13.1757 36.6615 13.5617 36.6255 13.9581 36.5363C15.3544 36.2219 16.7369 35.8183 17.9236 35.4638C20.2523 34.7698 22.2798 34.5434 24.1211 34.7721C26.0174 35.007 27.9498 35.3563 29.8186 35.6925L29.9681 35.7199C31.7338 36.0389 33.4119 36.127 35.1009 35.9909C37.0802 35.832 38.8511 35.0585 40.366 33.691C41.8591 32.343 42.5652 30.7223 42.9673 29.6206C43.5721 27.9582 44.1454 26.2734 44.6998 24.6447C44.847 24.2108 44.9953 23.7769 45.1436 23.3424C45.174 23.2532 45.2055 23.1629 45.2364 23.0726C45.4077 22.5798 45.5995 22.0258 45.7364 21.4278C46.001 21.6279 46.2954 21.7943 46.6138 21.9229C46.8624 22.0218 47.115 22.095 47.3716 22.1419C47.2627 22.4723 47.1533 22.8022 47.0422 23.1286C46.1287 25.8229 46.9907 28.4807 49.2381 29.8985C50.1733 30.489 51.3325 30.812 52.5948 30.8446C51.9236 31.7336 51.6229 32.7798 51.7546 33.8277C51.9597 35.4432 53.1836 36.6278 54.9487 36.9193C55.2821 36.9748 55.6343 37.0022 55.9928 37.0022C56.3513 37.0022 56.6938 36.9759 57.0455 36.925C58.7705 36.6706 60.365 36.1344 61.8295 35.5924C64.6399 34.5548 67.3964 34.3662 70.2526 35.0179C71.1386 35.2203 72.0418 35.4369 72.9152 35.6468C73.8917 35.8806 74.9008 36.123 75.9077 36.3505C75.9352 36.3568 75.9632 36.3625 75.9907 36.3676C77.3825 36.6341 79.4282 36.8679 81.2707 36.4631C82.2667 36.2436 83.6836 35.6845 84.6784 34.7738C85.3096 34.1964 85.86 33.5761 86.3273 32.9193C86.4287 33.5098 86.6773 34.0678 87.0564 34.5468C87.4934 35.0974 88.0982 35.5267 88.8021 35.7891C88.8891 35.8205 88.9647 35.8457 89.0243 35.8629C90.7264 36.4374 92.4607 36.7278 94.1788 36.7278H94.1932C95.9325 36.7255 97.6839 36.4265 99.3981 35.8377C102.109 34.9064 104.528 33.2337 106.391 30.9978C108.251 28.7654 109.457 26.0928 109.88 23.2687C109.985 22.5701 110.071 21.5096 109.614 20.3576" fill="#6AD6D3"/>
<path d="M87.5039 25.922C87.1253 26.1729 86.7376 26.4131 86.3825 26.6938C86.2233 26.8195 86.1202 27.0471 86.0452 27.2397C85.6884 28.1578 85.3883 29.0891 84.9942 29.9975C84.5297 31.0683 83.8156 32.0184 82.9101 32.8479C82.3545 33.3562 81.3906 33.7615 80.7051 33.913C79.5161 34.1742 77.9909 34.0908 76.4841 33.8021C74.5941 33.3756 72.7235 32.9017 70.8353 32.4706C67.6297 31.7394 64.3337 31.8818 60.9219 33.1423C59.521 33.6603 58.1064 34.1274 56.6631 34.3395C56.2313 34.4029 55.7817 34.4086 55.3745 34.3412C54.8745 34.2588 54.4157 34.0216 54.3493 33.4985C54.2806 32.9548 54.5738 32.438 55.0435 32.0298C55.6998 31.4593 56.4844 31.1775 57.2771 30.9431C60.0365 30.1244 62.7988 29.7683 65.5204 29.8414C67.2214 29.8872 68.9012 30.1021 70.5363 30.3908C72.8661 30.8024 75.2046 31.1666 77.6496 31.1443C79.0155 31.1323 80.1031 31.0134 81.3883 30.2405C82.0183 29.8615 82.6037 29.0862 82.9015 28.4923C83.004 28.2876 83.083 28.0732 83.1489 27.8606C83.1844 27.7462 83.1374 27.6753 83.083 27.6427C83.0309 27.6113 82.9049 27.6365 82.8339 27.6788C81.5441 28.4465 80.1243 28.2299 79.3712 27.1442C79.3259 27.0785 79.279 27.0139 79.2269 26.9413C79.1719 26.8653 79.0631 26.8533 78.9932 26.9156C78.8998 26.999 78.8162 27.0745 78.7309 27.1477C77.5207 28.1836 75.9062 28.4591 74.8592 27.7639C74.5815 27.5793 74.3713 27.2837 74.2069 26.991C73.9331 26.5045 73.8902 26.4868 73.4652 26.9773C73.0574 27.4478 72.6193 27.8577 71.991 28.0303C70.9647 28.3122 69.9 28.0481 69.5111 27.2248C69.2459 26.6629 69.2935 25.9649 69.4991 25.2817C69.7751 24.3641 70.0501 23.446 70.3232 22.5279C70.3759 22.3495 70.4235 22.1706 70.4716 21.9917C70.4842 21.9442 70.4401 21.9002 70.3931 21.9145C70.1978 21.9756 69.9177 22.0197 69.7333 22.0128C69.3233 21.9974 69.0008 21.9608 68.5718 21.8567C68.5335 21.8476 68.4957 21.8745 68.4934 21.9133C68.4905 21.9625 68.4877 22.0157 68.4831 22.0694C68.3582 23.5861 68.0237 25.0673 66.8577 26.3708C65.7598 27.5987 63.4975 28.51 62.0359 27.9337C61.0789 27.5564 60.5136 26.8515 60.2913 25.8957C59.7719 23.6581 60.9614 21.0444 63.1664 19.5929C64.4408 18.7542 65.7231 18.5124 66.9688 19.1189C67.5146 19.3848 68.0833 19.6192 68.6641 19.8261C69.3754 20.0794 70.1216 19.9216 70.8622 19.538C71.2093 19.3579 71.546 19.1521 71.896 18.98C73.1428 18.3677 73.9646 19.1401 73.8037 20.1011C73.6537 20.9946 73.3272 21.8888 73.0786 22.7829C72.928 23.3254 72.7596 23.8673 72.633 24.4116C72.5208 24.8952 72.6542 25.2457 72.9154 25.3046C73.1909 25.3669 73.6405 25.1291 73.9131 24.7375C74.5465 23.8273 74.9062 22.8406 75.1347 21.8362C75.2957 21.129 75.3862 20.4178 75.4904 19.7089C75.5482 19.3167 75.7327 19.0852 76.1399 18.9634C77.0728 18.6839 78.0974 18.968 78.3494 19.5986C78.5327 20.0582 78.4915 20.5636 78.3202 21.0781C78.0155 21.9934 77.696 22.9063 77.397 23.8222C77.3031 24.1092 77.2212 24.4053 77.1948 24.6934C77.1502 25.1788 77.6375 25.4538 78.1221 25.2302C78.5533 25.0307 78.8162 24.7277 78.9348 24.267C79.3815 22.5313 80.2102 20.9512 81.8517 19.8118C83.0922 18.9503 84.2525 18.7176 85.7456 18.8937C85.9072 18.912 86.052 18.9337 86.1918 18.9532C87.1024 19.0881 87.6649 19.3425 88.1093 19.9519C88.3275 20.2514 88.2519 20.6282 88.127 21.0032C87.855 21.8179 87.5881 22.6337 87.3212 23.4489C87.3086 23.4952 87.3069 23.5072 87.3052 23.5283C87.2972 23.6147 87.3962 23.669 87.465 23.617C88.0749 23.1573 88.7066 22.8132 88.9541 22.1689C89.3733 21.077 89.6957 19.9645 90.044 18.8588C90.3091 18.0167 90.5766 17.1735 90.7942 16.3263C90.9294 15.7997 90.9998 15.2641 91.0485 14.737C91.0909 14.2779 91.2667 14.0058 91.7346 13.8377C92.635 13.5147 93.8102 13.8657 93.9706 14.5701C94.0508 14.9216 94.0261 15.3464 93.9156 15.7231C93.5651 16.9197 93.1499 18.1088 92.7638 19.3013C92.6951 19.514 92.6252 19.7301 92.5943 19.9433C92.5811 20.0354 92.6207 20.1714 92.7066 20.1977C92.8246 20.2332 92.9053 20.1497 92.9821 20.0725C93.0628 19.9828 93.1407 19.8816 93.2174 19.7838C93.7993 19.0486 94.7896 18.6873 95.6928 18.88C96.3984 19.0303 96.9654 19.7386 96.821 20.5579C96.6452 21.5537 96.3142 22.549 96.0496 23.5449C95.9425 23.9485 95.813 24.3516 95.73 24.7563C95.6515 25.1399 95.8211 25.3349 96.2134 25.3737C96.6172 25.4138 96.998 25.4052 97.3886 25.0776C97.5593 24.9341 97.8136 24.8398 98.0341 24.9827C98.2042 25.0976 98.3348 25.3068 98.3153 25.5401C98.2254 26.5886 97.5667 27.1734 96.7019 27.6856C95.6533 28.3065 94.4316 28.3139 93.4792 27.9132C92.5863 27.537 92.2879 26.544 92.6419 25.4098C92.8183 24.8438 93.0221 24.2807 93.1676 23.7124C93.2495 23.3917 93.3039 23.0441 93.253 22.7446C93.1791 22.3072 92.7913 22.218 92.3475 22.4742C91.8188 22.78 91.5617 23.2757 91.379 23.769C90.9758 24.8586 90.7473 25.9603 90.7055 27.0665C90.6963 27.3072 90.6121 27.573 90.4964 27.8057C90.4311 27.9372 90.2186 28.1121 90.0926 28.1172C89.5566 28.1378 88.9941 28.1824 88.5045 28.0675C87.8178 27.9063 87.5337 27.3112 87.6265 26.5508C87.6465 26.3862 87.6786 26.2215 87.7101 26.0563C87.7416 25.8951 87.6385 25.8494 87.5056 25.9214M65.5908 23.2253C65.6882 22.7823 65.6779 22.4964 65.6223 22.1895C65.5547 21.8167 65.4001 21.4686 64.9408 21.4074C64.462 21.3439 64.1212 21.6492 63.8365 22.0088C63.1739 22.8469 62.9081 23.7462 63.0462 24.674C63.1023 25.0502 63.2397 25.4178 63.6922 25.4875C64.1389 25.5572 64.6372 25.1611 64.7804 24.9513C64.9877 24.6883 65.1716 24.4042 65.3039 24.1229C65.4362 23.8411 65.5341 23.482 65.5908 23.2253ZM84.5658 22.3404C84.567 22.337 84.5675 22.3329 84.5681 22.3295C84.5876 22.1472 84.6128 22.0077 84.6151 21.8722C84.6248 21.2908 84.0658 21.0301 83.5641 21.4274C82.5052 22.2655 82.0057 23.3694 81.8144 24.5717C81.7652 24.8809 81.8694 25.1702 82.1999 25.2748C82.5166 25.3749 82.7726 25.1634 82.996 24.953C83.807 24.1903 84.3058 23.2917 84.5658 22.3404Z" fill="white"/>
<path d="M60.3432 20.3667C59.8902 22.7552 58.7539 24.8761 56.8244 26.7175C55.0833 28.3788 52.1252 28.6309 50.6361 27.6905C49.5909 27.0308 48.9105 25.7634 49.5198 23.9637C50.0502 22.399 50.5341 20.8269 51.0416 19.2588C51.3022 18.4544 51.8251 17.8221 52.6332 17.4448C53.9579 16.8268 54.3491 17.5706 54.2729 18.2812C54.1904 19.0501 53.9631 19.8156 53.6715 20.5765C53.2065 21.7919 52.7775 23.0141 52.3422 24.2353C52.2855 24.3948 52.2552 24.5811 52.23 24.7458C52.1664 25.1614 52.2443 25.5404 52.6086 25.7268C52.9745 25.9143 53.4052 25.7348 53.7901 25.5164C54.36 25.1934 54.7752 24.7092 55.0793 24.1741C56.3949 21.8616 56.9808 19.5103 56.5426 17.1441C56.2265 15.4371 54.7196 14.8819 52.9923 15.8904C52.2586 16.3186 51.6252 16.9509 50.9723 17.5191C50.391 18.0251 49.8732 18.6042 49.2759 19.089C48.7713 19.4989 48.1785 19.7355 47.588 19.4989C46.8343 19.1964 46.6396 18.224 47.123 17.3459C47.8904 15.9527 49.084 15.0014 50.5324 14.3857C52.9259 13.3676 55.2821 13.1703 57.5071 13.8746C59.0999 14.3789 59.9956 15.5371 60.3415 17.1212C60.57 18.1657 60.5718 19.2462 60.3432 20.3667Z" fill="white"/>
<path d="M34.9648 16.7482C34.9648 16.7482 34.9373 16.8065 34.9877 16.8643C35.0364 16.9203 35.1211 16.8843 35.1211 16.8843C35.5678 16.7105 35.7437 16.6402 36.1171 16.4904C36.2064 16.4544 36.3691 16.3863 36.4561 16.3526C36.6692 16.2703 36.9768 16.2308 37.0409 16.4366C37.0902 16.5939 37.0902 16.6802 37.0816 16.8671C37.0461 17.6663 36.0879 18.6736 35.0799 18.9926C34.1326 19.2928 33.8119 19.8204 33.5902 20.6225C33.2838 21.7322 32.8818 22.8321 32.5227 23.9366C32.4614 24.1247 32.4081 24.3139 32.3617 24.5037C32.2672 24.8884 32.372 25.176 32.7311 25.3132C33.0278 25.4264 33.478 25.2612 33.7357 24.9164C34.0163 24.5408 34.3073 24.1567 34.5054 23.7491C34.8559 23.0287 35.1583 22.2918 35.4459 21.5544C35.6526 21.0227 35.7855 20.4762 35.9825 19.9422C36.1492 19.49 36.7809 19.1561 37.4613 19.1224C37.9951 19.0961 38.4979 19.2848 38.5266 19.757C38.5558 20.2406 38.4378 20.7997 38.3129 21.2931C38.0632 22.2781 37.7242 23.2568 37.4407 24.2401C37.3765 24.4619 37.3164 24.7106 37.3313 24.929C37.3639 25.4155 37.9407 25.527 38.4097 25.1668C38.7826 24.8547 39.0729 24.3853 39.3118 23.8034C39.7178 22.684 40.1256 21.4692 40.2442 20.3024C40.3284 19.4763 41.0506 18.8594 41.8787 18.9406C43.0482 19.055 43.4526 19.5603 43.2115 20.7283C43.0895 21.32 42.8684 21.9111 42.6674 22.4982C41.9566 24.5763 41.2619 26.6572 40.5082 28.7273C40.1073 29.8278 39.5603 30.8962 38.6107 31.7538C37.522 32.7359 36.2797 33.2762 34.8897 33.3876C33.3554 33.5111 31.8806 33.4105 30.4316 33.1493C28.4477 32.7914 26.4609 32.4306 24.4426 32.1802C22.0652 31.8858 19.6271 32.2306 17.1741 32.9612C15.9141 33.3368 14.6496 33.7026 13.3804 33.9885C12.9027 34.096 12.3707 34.0468 11.9274 33.9273C11.1107 33.7066 10.8896 32.7228 11.4984 31.9973C11.7945 31.6446 12.2309 31.2959 12.6507 31.1449C13.5276 30.8294 14.4359 30.5727 15.3317 30.4275C16.4548 30.2451 17.5842 30.1496 18.6993 30.1062C19.898 30.0593 21.095 30.065 22.2714 30.1382C23.965 30.2434 25.6442 30.4103 27.3194 30.5881C28.8503 30.751 30.3555 31.0066 31.8932 31.1415C33.2981 31.2644 34.6624 31.1655 36.0839 30.5521C36.5902 30.3337 37.2036 29.7037 37.4258 29.2469C37.6331 28.8216 37.8001 28.3723 37.9269 27.8989C37.9498 27.8137 38.0128 27.5222 38.0357 27.3249C38.0426 27.2661 38.0552 27.2146 38.0088 27.1906C37.9527 27.162 37.8427 27.226 37.8427 27.226C37.7803 27.258 37.7677 27.2621 37.6589 27.3289C37.3015 27.5479 36.9997 27.8189 36.6251 27.9732C35.5713 28.4077 34.6658 28.0904 34.2151 27.1969C34.1967 27.1597 34.1681 27.1283 34.1377 27.0986C34.0914 27.0528 34.0175 27.0534 33.9694 27.0968C33.2311 27.7703 32.4116 28.1579 31.4729 28.1642C30.5628 28.1705 29.7547 28.0047 29.3234 27.2049C29.289 27.1409 29.2077 27.1191 29.1441 27.1546C29.0914 27.1843 29.0399 27.2146 28.9969 27.2535C27.9815 28.1762 26.3372 28.4546 25.2742 27.8789C24.4472 27.4313 24.1591 26.528 24.4907 25.4441C24.749 24.6009 25.0228 23.7588 25.2456 22.9121C25.3607 22.4748 25.4294 21.9563 25.426 21.5887C25.4157 21.4309 25.304 21.3691 25.2032 21.2645C25.1494 21.2085 25.0612 21.2102 25.0062 21.2657C24.9157 21.356 24.8584 21.46 24.8057 21.5629C24.1838 22.7783 23.5858 24.0012 22.9621 25.216C22.201 26.6989 21.0624 27.4553 19.5223 27.9338C18.8465 28.1442 18.0441 28.1859 17.4107 28.0527C16.0825 27.7731 15.7612 26.6475 16.0625 25.5213C16.3391 24.4854 16.7022 23.4575 16.9777 22.4216C17.2016 21.5784 17.3803 20.7289 17.5246 19.8828C17.6306 19.2619 17.7933 18.9949 18.4307 18.9383C18.9204 18.8943 19.4341 18.9372 19.8723 19.0744C20.453 19.2562 20.6409 19.996 20.4055 20.8049C20.2589 21.3085 20.0767 21.8088 19.9146 22.3113C19.6959 22.9893 19.4668 23.6662 19.2692 24.3465C19.118 24.8656 19.213 25.1188 19.5452 25.2692C19.8419 25.4035 20.2302 25.292 20.6031 24.9233C21.2709 24.2624 21.7617 23.5038 22.0956 22.6771C22.4197 21.8734 22.7279 21.0656 23.0188 20.2555C23.1752 19.8199 23.1643 19.4054 22.9701 19.0189C22.7594 18.5993 23.0062 17.883 23.4547 17.5057C23.8636 17.1615 24.4197 17.0838 24.8538 17.3679C25.1728 17.5766 25.4546 17.8373 25.721 18.1037C26.3767 18.7594 27.2203 19.1699 28.0651 19.5775C28.6596 19.8645 28.8647 20.3235 28.5491 21.0947C28.2661 21.7865 28.0697 22.5182 27.8807 23.2408C27.7679 23.6719 27.6493 24.0841 27.6178 24.5414C27.5926 24.9067 27.6413 25.1651 27.966 25.292C28.2965 25.4212 28.7696 25.2572 29.0187 24.977C29.2948 24.6666 29.5754 24.211 29.7369 23.7719C30.2088 22.4891 30.5943 21.1891 30.9963 19.8936C31.163 19.3562 31.1487 19.3408 30.612 19.2099C29.9998 19.0607 29.4861 18.7943 29.0743 18.3587C28.6608 17.9219 28.6676 17.3794 28.8475 16.7962C28.9546 16.4492 29.3629 16.3006 29.7621 16.4441C30.2151 16.607 30.6521 16.8002 31.1011 16.9723C31.6303 17.1753 31.8766 17.0626 32.0141 16.4864C32.1481 15.9233 32.2054 15.355 32.2924 14.7891C32.3239 14.5867 32.3422 14.3008 32.4276 14.115C32.5204 13.9127 32.6349 13.7286 32.8222 13.6354C33.7111 13.1912 35.1687 13.485 35.3067 14.4701C35.3582 14.8365 35.2821 15.2453 35.2213 15.6351C35.1606 16.0262 35.0896 16.208 34.9642 16.7482" fill="white"/>
<path d="M16.2511 20.1804C15.7694 22.7084 14.6669 24.7722 12.848 26.6027C11.0496 28.4121 8.09146 28.6408 6.59664 27.7907C5.21694 27.0063 4.83264 25.417 5.47696 23.6786C6.04339 22.1499 6.44659 20.5897 6.93226 19.0456C6.98839 18.8673 7.22378 18.4825 7.34806 18.3407C7.49812 18.1692 7.57143 18.0669 7.75069 17.9143C7.87096 17.8114 8.08631 17.6599 8.32571 17.5272C9.31653 16.9784 9.99292 17.5467 9.94653 18.2881C9.91273 18.8244 9.81824 19.3812 9.64871 19.9146C9.24264 21.1952 8.76041 22.4654 8.34404 23.7443C8.08001 24.5384 8.01472 24.6801 7.99066 25.1855C7.97463 25.6091 8.2335 25.8224 8.65617 25.8287C9.42477 25.8407 10.0009 25.4079 10.4826 24.8293C11.3789 23.7517 11.8342 22.5278 12.1658 21.2861C12.5364 19.8997 12.6905 18.5243 12.407 17.1985C12.0416 15.4915 10.655 14.9655 8.85204 15.8888C7.81598 16.4193 6.92424 17.1339 6.21063 18.0595C5.87272 18.4974 5.50789 18.921 5.12874 19.3303C4.96265 19.5098 4.74502 19.6699 4.52681 19.782C3.47242 20.3245 2.60817 19.8929 2.61676 18.8272C2.62764 17.4581 3.47013 16.409 4.57835 15.5143C5.87673 14.4664 7.35436 13.9245 8.91905 13.6804C10.167 13.4854 11.3806 13.4586 12.5519 13.6912C14.5524 14.0891 15.7689 15.2445 16.1858 17.1482C16.2992 17.6656 16.3445 18.2133 16.3519 18.7586C16.3594 19.2926 16.278 19.8414 16.2517 20.181" fill="white"/>
<path d="M18.517 16.3461C18.6734 15.4731 19.521 14.7242 20.3417 14.7345C21.3715 14.7476 22.0805 15.5097 21.9133 16.4238C21.7489 17.3202 20.7696 18.1028 19.8257 18.092C18.8681 18.0805 18.3343 17.3682 18.517 16.3461Z" fill="white"/>
<path d="M107.182 21.3169C106.899 20.6023 106.364 20.2335 105.587 20.2221C105.412 20.2192 105.246 20.217 105.099 20.1901C104.841 20.1432 104.705 19.9997 104.656 19.7253L104.654 19.7127C104.639 19.6321 104.625 19.5487 104.608 19.4675C104.458 18.7432 104.109 18.423 103.365 18.3253C103.178 18.3007 103.021 18.2572 102.897 18.1961C102.632 18.0646 102.659 17.9159 102.672 17.8445C102.71 17.6284 102.784 17.4043 102.886 17.1962C103.135 16.6868 103.104 16.1717 102.798 15.7069C102.774 15.6715 102.749 15.6366 102.725 15.6029C102.704 15.5737 102.682 15.5434 102.662 15.5126C102.512 15.2707 102.522 15.0598 102.694 14.8494C102.754 14.7768 102.838 14.7042 102.928 14.6265C102.962 14.5962 102.999 14.5647 103.034 14.5333C103.088 14.4841 103.146 14.4355 103.201 14.3886C103.29 14.3132 103.382 14.2354 103.472 14.1491C103.852 13.7861 104.025 13.295 103.988 12.6885C103.95 12.0933 103.666 11.5651 103.117 11.0752C102.483 10.508 101.812 10.0061 101.126 9.58307C100.431 9.1543 99.6939 8.79243 98.9356 8.50601C98.1733 8.21788 97.3629 7.99721 96.5267 7.84915C95.6917 7.70165 94.8017 7.62162 93.879 7.61133H93.8555L93.8326 7.61361C93.7329 7.62333 93.6121 7.63305 93.4724 7.64391C93.1001 7.67307 92.5904 7.71309 92.0886 7.79084C90.7439 7.9995 89.4644 8.40197 88.2846 8.9868C87.1197 9.5642 86.0235 10.3348 85.0258 11.2764C84.8792 11.4147 84.7612 11.5605 84.6758 11.7092C84.4393 12.1219 84.4427 12.5655 84.6861 12.9263C84.953 13.3224 85.4336 13.4865 85.9192 13.343C86.2193 13.2544 86.4971 13.1224 86.7233 12.9611C87.0945 12.697 87.4358 12.4078 87.7817 12.1099C88.6362 11.3747 89.5709 10.8093 90.5595 10.4303C91.4936 10.0719 92.5428 9.84147 93.7679 9.72484C95.3549 9.57392 96.647 9.72198 97.8337 10.1896C98.6939 10.5286 99.6028 10.9185 100.418 11.4713C100.98 11.8515 101.397 12.2654 101.692 12.7353C101.745 12.8194 101.767 12.8691 101.775 12.8937C101.757 12.916 101.714 12.9594 101.62 13.028C101.571 13.064 101.52 13.1001 101.471 13.1349C101.353 13.219 101.23 13.3059 101.11 13.4076C100.554 13.8793 100.331 14.523 100.483 15.2199C100.562 15.5806 100.689 15.9396 100.85 16.2592C100.941 16.4376 100.943 16.5645 100.86 16.7617C100.765 16.9858 100.636 17.3254 100.606 17.681C100.557 18.2567 100.657 18.7512 100.903 19.1508C101.163 19.5727 101.572 19.8722 102.121 20.0414C102.24 20.078 102.359 20.1089 102.472 20.1323C102.633 20.1661 102.702 20.1889 102.732 20.2027C102.741 20.2312 102.754 20.2976 102.767 20.4485C102.768 20.4622 102.768 20.4759 102.769 20.4902C102.77 20.5257 102.771 20.5628 102.775 20.5988C102.823 21.0636 102.993 21.4495 103.28 21.7468C103.568 22.0441 103.949 22.227 104.413 22.2905C104.555 22.3099 104.706 22.3236 104.875 22.3333C104.994 22.3402 105.051 22.3539 105.074 22.3613C105.083 22.3831 105.099 22.4368 105.114 22.5517C105.118 22.5837 105.118 22.6283 105.118 22.6758C105.118 22.7021 105.118 22.7289 105.119 22.7552C105.135 23.4653 104.915 24.1764 104.722 24.8041C104.368 25.9532 103.778 26.9897 102.968 27.8855C102.401 28.5115 101.71 29.1204 100.793 29.8029C99.7655 30.5667 98.8457 31.0589 97.8972 31.3516C97.0857 31.602 96.1825 31.7478 95.1356 31.797C93.7192 31.8639 92.3246 31.6741 90.8722 31.2167C90.6133 31.135 90.3052 31.1104 89.957 31.1435C89.6849 31.1693 89.4255 31.2968 89.2256 31.5026C89.0314 31.7027 88.9129 31.9548 88.8923 32.2126C88.8711 32.4744 88.9455 32.7203 89.1065 32.9238C89.2491 33.1033 89.4541 33.2433 89.7158 33.3405C89.7439 33.3508 89.7725 33.36 89.8017 33.3685L89.8298 33.3771C91.2719 33.8665 92.7347 34.1146 94.1785 34.1146H94.1911C95.6407 34.1129 97.1063 33.8613 98.5479 33.3668C100.807 32.5916 102.823 31.1944 104.379 29.3267C105.934 27.4613 106.941 25.2323 107.293 22.8804C107.362 22.4197 107.402 21.8737 107.182 21.3163" fill="white"/>
</g>
<defs>
<clipPath id="clip0_10670_83462">
<rect width="109.964" height="32" fill="white" transform="translate(0 5)"/>
</clipPath>
</defs>
</svg>
